<?xml version="1.0" encoding="UTF-8" standalone="no"?> <svg xmlns="http://www.w3.org/2000/svg" xmlns:xlink="http://www.w3.org/1999/xlink" viewBox="0 0 64 64"><defs><style>.cls-1{fill:url(#linear-gradient);}.cls-2{fill:url(#linear-gradient-2);}</style><linearGradient id="linear-gradient" x1="2.76" y1="31.98" x2="55.33" y2="31.98" gradientUnits="userSpaceOnUse"><stop offset="0" stop-color="#17a6d7"/><stop offset="1" stop-color="#9d31fe"/></linearGradient><linearGradient id="linear-gradient-2" x1="34.09" y1="18.23" x2="59.25" y2="18.23" xlink:href="#linear-gradient"/></defs><g id="Layer_78" data-name="Layer 78"><path class="cls-1" d="M54,47.94a26.52,26.52,0,0,1-15.31-3.35A26.78,26.78,0,0,1,28.47,8.16,27.84,27.84,0,0,1,30.7,4.81a1.27,1.27,0,0,0,.11-1.36A1.25,1.25,0,0,0,29.6,2.8,29.23,29.23,0,1,0,55.06,50a1.27,1.27,0,0,0,.12-1.37A1.28,1.28,0,0,0,54,47.94ZM18.88,55.26A26.74,26.74,0,0,1,27.05,5.67c-.26.41-.52.84-.76,1.26a29.26,29.26,0,0,0,25,43.6A27,27,0,0,1,18.88,55.26Z"/><path class="cls-2" d="M59.19,15.29a1.26,1.26,0,0,0-1-.85L51,13.4,47.79,6.9a1.25,1.25,0,0,0-2.24,0l-3.21,6.5-7.18,1a1.26,1.26,0,0,0-1,.85,1.28,1.28,0,0,0,.32,1.29l5.19,5.06-1.22,7.15a1.24,1.24,0,0,0,1.23,1.46,1.3,1.3,0,0,0,.58-.14l6.42-3.38,6.42,3.38a1.26,1.26,0,0,0,1.32-.1,1.23,1.23,0,0,0,.49-1.22l-1.22-7.15,5.19-5.06A1.26,1.26,0,0,0,59.19,15.29Zm-7.73,5a1.25,1.25,0,0,0-.36,1.1l.91,5.3-4.76-2.5a1.25,1.25,0,0,0-1.16,0l-4.76,2.5.91-5.3a1.25,1.25,0,0,0-.36-1.1L38,16.55l5.32-.77a1.23,1.23,0,0,0,.94-.68l2.38-4.82,2.38,4.82a1.23,1.23,0,0,0,.94.68l5.32.77Z"/></g></svg>