<?xml version="1.0" encoding="UTF-8" standalone="no"?> <svg xmlns="http://www.w3.org/2000/svg" xmlns:xlink="http://www.w3.org/1999/xlink" viewBox="0 0 64 64"><defs><style>.cls-1{fill:url(#linear-gradient);}.cls-2{fill:url(#linear-gradient-2);}.cls-3{fill:url(#linear-gradient-3);}.cls-4{fill:url(#linear-gradient-4);}.cls-5{fill:url(#linear-gradient-5);}.cls-6{fill:url(#linear-gradient-6);}.cls-7{fill:url(#linear-gradient-7);}.cls-8{fill:url(#linear-gradient-8);}.cls-9{fill:url(#linear-gradient-9);}.cls-10{fill:url(#linear-gradient-10);}</style><linearGradient id="linear-gradient" x1="20.73" y1="32.1" x2="55.42" y2="32.1" gradientUnits="userSpaceOnUse"><stop offset="0" stop-color="#17a6d7"/><stop offset="1" stop-color="#9d31fe"/></linearGradient><linearGradient id="linear-gradient-2" x1="36.58" y1="9.01" x2="39.58" y2="9.01" xlink:href="#linear-gradient"/><linearGradient id="linear-gradient-3" x1="36.58" y1="55.27" x2="39.58" y2="55.27" xlink:href="#linear-gradient"/><linearGradient id="linear-gradient-4" x1="18.93" y1="48.51" x2="24.49" y2="48.51" xlink:href="#linear-gradient"/><linearGradient id="linear-gradient-5" x1="11.63" y1="32.14" x2="18.23" y2="32.14" xlink:href="#linear-gradient"/><linearGradient id="linear-gradient-6" x1="18.92" y1="15.78" x2="24.5" y2="15.78" xlink:href="#linear-gradient"/><linearGradient id="linear-gradient-7" x1="24.29" y1="55.47" x2="30.81" y2="55.47" xlink:href="#linear-gradient"/><linearGradient id="linear-gradient-8" x1="8.59" y1="41.04" x2="19.58" y2="41.04" xlink:href="#linear-gradient"/><linearGradient id="linear-gradient-9" x1="9.53" y1="21.29" x2="20.26" y2="21.29" xlink:href="#linear-gradient"/><linearGradient id="linear-gradient-10" x1="26.58" y1="8.02" x2="32.45" y2="8.02" xlink:href="#linear-gradient"/></defs><g id="Layer_51" data-name="Layer 51"><path class="cls-1" d="M38.08,14.79A17.37,17.37,0,0,0,20.73,32.14c.95,23,33.75,23,34.69,0A17.37,17.37,0,0,0,38.08,14.79ZM23.73,32.14A14.38,14.38,0,0,1,36.58,17.87V46.41A14.36,14.36,0,0,1,23.73,32.14ZM39.58,46.41V17.87C56.61,20.12,56.6,44.18,39.58,46.41Z"/><path class="cls-2" d="M38.08,12.31a1.5,1.5,0,0,0,1.5-1.5V7.19a1.5,1.5,0,0,0-3,0v3.62A1.5,1.5,0,0,0,38.08,12.31Z"/><path class="cls-3" d="M38.08,52a1.5,1.5,0,0,0-1.5,1.5v3.62a1.5,1.5,0,0,0,3,0V53.47A1.5,1.5,0,0,0,38.08,52Z"/><path class="cls-4" d="M24.05,46.17a1.49,1.49,0,0,0-2.12,0l-2.56,2.56a1.5,1.5,0,0,0,2.13,2.12l2.55-2.56A1.49,1.49,0,0,0,24.05,46.17Z"/><path class="cls-5" d="M16.75,30.64H13.13a1.5,1.5,0,0,0,0,3h3.62A1.5,1.5,0,0,0,16.75,30.64Z"/><path class="cls-6" d="M21.93,18.12A1.5,1.5,0,0,0,24.05,16L21.5,13.44a1.5,1.5,0,0,0-2.13,2.12Z"/><path class="cls-7" d="M29.92,50.22a1.5,1.5,0,0,0-2,.75l-3.51,7.78A1.5,1.5,0,0,0,27.17,60l3.5-7.78A1.48,1.48,0,0,0,29.92,50.22Z"/><path class="cls-8" d="M19.48,39a1.5,1.5,0,0,0-1.93-.88l-8,3a1.5,1.5,0,0,0,1,2.81l8-3A1.5,1.5,0,0,0,19.48,39Z"/><path class="cls-9" d="M10.39,20.85l7.73,3.62a1.51,1.51,0,0,0,2-.73,1.49,1.49,0,0,0-.72-2l-7.73-3.62A1.5,1.5,0,0,0,10.39,20.85Z"/><path class="cls-10" d="M29.53,12.54a1.5,1.5,0,0,0,2.83-1l-2.86-8a1.5,1.5,0,0,0-2.82,1Z"/></g></svg>